<svg width="25" height="25" viewBox="0 0 25 25" fill="none" xmlns="http://www.w3.org/2000/svg">
<g clip-path="url(#clip0_8116_39981)">
<path d="M21.25 13.75V17.5L17.5 13.75H10C8.61929 13.75 7.5 12.6307 7.5 11.25V2.5C7.5 1.125 8.625 0 10 0H22.5C23.8807 0 25 1.11929 25 2.5V11.25C25 12.6307 23.8807 13.75 22.5 13.75H21.25ZM17.5 16.25V18.75C17.5 20.1307 16.3807 21.25 15 21.25H7.5L3.75 25V21.25H2.5C1.11929 21.25 0 20.1307 0 18.75V10C0 8.625 1.125 7.5 2.5 7.5H5V11.25C5 14.0114 7.23857 16.25 10 16.25H17.5Z" fill="#991B1B" stroke="#991B1B" stroke-width="0.0244141"/>
</g>
<defs>
<clipPath id="clip0_8116_39981">
<rect width="25" height="25" fill="white"/>
</clipPath>
</defs>
</svg>
