<svg width="25" height="25" viewBox="0 0 25 25" fill="none" xmlns="http://www.w3.org/2000/svg">
<path d="M6.25 11.25C4.86929 11.25 3.75 12.3693 3.75 13.75V20C3.75 21.3807 4.86929 22.5 6.25 22.5H18.75C20.1307 22.5 21.25 21.3807 21.25 20V13.75C21.25 12.3693 20.1307 11.25 18.75 11.25V8.75C18.75 5.29822 15.9517 2.5 12.5 2.5C9.04822 2.5 6.25 5.29822 6.25 8.75V11.25ZM16.25 8.75V11.25H8.75V8.75C8.75 6.67893 10.4289 5 12.5 5C14.5711 5 16.25 6.67893 16.25 8.75Z" fill="#991B1B" stroke="#991B1B" stroke-width="0.0244141"/>
</svg>
