<svg width="25" height="25" viewBox="0 0 25 25" fill="none" xmlns="http://www.w3.org/2000/svg">
<path d="M22.6562 20.3125H2.34375C2.13655 20.3125 1.93784 20.3949 1.79131 20.5414C1.6448 20.6878 1.5625 20.8865 1.5625 21.0938C1.5625 21.301 1.6448 21.4997 1.79131 21.6461C1.93782 21.7927 2.13655 21.875 2.34375 21.875H22.6562C22.8635 21.875 23.0622 21.7926 23.2086 21.6461C23.3552 21.4997 23.4375 21.301 23.4375 21.0938C23.4375 20.8865 23.3551 20.6878 23.2086 20.5414C23.0622 20.3948 22.8635 20.3125 22.6562 20.3125Z" fill="#991B1B" stroke="#991B1B" stroke-width="0.0244141"/>
<path d="M19.4688 18.7494C20.681 17.4023 21.4768 15.7329 21.7599 13.9429C22.0431 12.153 21.8012 10.3193 21.0639 8.66392C20.3267 7.00852 19.1253 5.60227 17.6054 4.61538C16.0856 3.62849 14.3122 3.10327 12.5 3.10327C10.6878 3.10327 8.91448 3.62849 7.39458 4.61538C5.87469 5.60227 4.67339 7.0085 3.93606 8.66392C3.19873 10.3193 2.95701 12.153 3.24012 13.9429C3.52322 15.7329 4.31905 17.4023 5.53125 18.7494H19.4688ZM10.9375 13.2807C10.5231 13.2807 10.1257 13.1161 9.83264 12.823C9.5396 12.53 9.375 12.1326 9.375 11.7182V10.1557C9.375 9.74126 9.53963 9.34385 9.83264 9.05081C10.1257 8.75776 10.5231 8.59316 10.9375 8.59316H11.7188V7.81191C11.7188 7.60471 11.8011 7.40601 11.9476 7.2595C12.0941 7.11299 12.2928 7.03066 12.5 7.03066C12.7072 7.03066 12.9059 7.11299 13.0524 7.2595C13.199 7.40601 13.2813 7.60471 13.2813 7.81191V8.59316H14.8438C15.051 8.59316 15.2497 8.67549 15.3962 8.822C15.5426 8.96851 15.625 9.16721 15.625 9.37441C15.625 9.58162 15.5426 9.78032 15.3962 9.92686C15.2497 10.0734 15.051 10.1557 14.8438 10.1557H10.9375V11.7182H14.0625C14.477 11.7182 14.8743 11.8828 15.1674 12.1758C15.4604 12.4688 15.625 12.8663 15.625 13.2807V14.8432C15.625 15.2576 15.4604 15.655 15.1674 15.948C14.8743 16.2411 14.477 16.4057 14.0625 16.4057H13.2813V17.1869C13.2813 17.3942 13.199 17.5929 13.0524 17.7393C12.9059 17.8858 12.7072 17.9682 12.5 17.9682C12.2928 17.9682 12.0941 17.8858 11.9476 17.7393C11.8011 17.5929 11.7188 17.3942 11.7188 17.1869V16.4057H10.1563C9.94905 16.4057 9.75034 16.3233 9.60384 16.1768C9.45733 16.0304 9.375 15.8317 9.375 15.6244C9.375 15.4172 9.45733 15.2185 9.60384 15.0719C9.75034 14.9256 9.94905 14.8432 10.1563 14.8432H14.0625V13.2807H10.9375Z" fill="#991B1B" stroke="#991B1B" stroke-width="0.0244141"/>
</svg>
