<svg width="25" height="25" viewBox="0 0 25 25" fill="none" xmlns="http://www.w3.org/2000/svg">
<g clip-path="url(#clip0_8116_39975)">
<path d="M12.5 9.24199C13.8543 9.24199 15.1009 9.70254 16.092 10.4755C15.5508 11.1238 15.225 11.9581 15.225 12.8684C15.225 13.6992 15.4964 14.4667 15.9552 15.0872H9.0449C9.50369 14.4667 9.77512 13.6992 9.77512 12.8684C9.77512 11.9581 9.44929 11.1238 8.90813 10.4755C9.89915 9.70256 11.1458 9.24199 12.5 9.24199H12.5ZM6.03857 16.6131C8.66406 16.6131 10.8852 18.3441 11.6231 20.7271C11.7529 21.1457 11.6823 21.5623 11.4222 21.915C11.1622 22.2678 10.7851 22.4583 10.3469 22.4583H1.73025C1.29197 22.4583 0.914916 22.2678 0.654858 21.915C0.394799 21.5623 0.32434 21.1457 0.453979 20.7271C1.19192 18.3441 3.41313 16.6131 6.03857 16.6131ZM18.9615 9.91309C17.3294 9.91309 16.0062 11.2362 16.0062 12.8684C16.0062 14.5006 17.3294 15.8237 18.9615 15.8237C20.5937 15.8237 21.9169 14.5006 21.9169 12.8684C21.9169 11.2362 20.5937 9.91309 18.9615 9.91309ZM6.03857 9.91309C4.4064 9.91309 3.08325 11.2362 3.08325 12.8684C3.08325 14.5006 4.4064 15.8237 6.03857 15.8237C7.67075 15.8237 8.9939 14.5006 8.9939 12.8684C8.9939 11.2362 7.67075 9.91309 6.03857 9.91309ZM18.9615 16.6131C21.587 16.6131 23.8082 18.3441 24.5461 20.7271C24.6757 21.1457 24.6052 21.5623 24.3452 21.915C24.0851 22.2678 23.7081 22.4583 23.2698 22.4583H14.6532C14.2149 22.4583 13.8379 22.2678 13.5778 21.915C13.3177 21.5623 13.2473 21.1457 13.3769 20.7271C14.1149 18.3441 16.3361 16.6131 18.9615 16.6131ZM12.5001 2.54199C14.1322 2.54199 15.4554 3.86514 15.4554 5.49731C15.4554 7.12949 14.1322 8.45264 12.5001 8.45264C10.8679 8.45264 9.54475 7.12949 9.54475 5.49731C9.54475 3.86514 10.8679 2.54199 12.5001 2.54199Z" fill="#991B1B" stroke="#991B1B" stroke-width="0.0244141"/>
</g>
<defs>
<clipPath id="clip0_8116_39975">
<rect width="25" height="25" fill="white"/>
</clipPath>
</defs>
</svg>
