<svg width="25" height="25" viewBox="0 0 25 25" fill="none" xmlns="http://www.w3.org/2000/svg">
<g clip-path="url(#clip0_8116_39960)">
<path d="M7.03125 9.375H2.34375C1.91406 9.375 1.5625 9.72656 1.5625 10.1562V24.2188C1.5625 24.6484 1.91406 25 2.34375 25H7.03125C7.46094 25 7.8125 24.6484 7.8125 24.2188V10.1562C7.8125 9.72656 7.46094 9.375 7.03125 9.375ZM7.03125 23.4375H2.34375V17.1875H7.03125V23.4375ZM14.8438 6.25H10.1562C9.72656 6.25 9.375 6.60156 9.375 7.03125V24.2188C9.375 24.6484 9.72656 25 10.1562 25H14.8438C15.2734 25 15.625 24.6484 15.625 24.2188V7.03125C15.625 6.60156 15.2734 6.25 14.8438 6.25ZM14.8438 23.4375H10.1562V15.625H14.8438V23.4375ZM22.6562 3.125H17.9688C17.5391 3.125 17.1875 3.47656 17.1875 3.90625V24.2188C17.1875 24.6484 17.5391 25 17.9688 25H22.6562C23.0859 25 23.4375 24.6484 23.4375 24.2188V3.90625C23.4375 3.47656 23.0859 3.125 22.6562 3.125ZM22.6562 23.4375H17.9688V14.0625H22.6562V23.4375Z" fill="#991B1B" stroke="#991B1B" stroke-width="0.0244141"/>
</g>
<defs>
<clipPath id="clip0_8116_39960">
<rect width="25" height="25" fill="white"/>
</clipPath>
</defs>
</svg>
