<svg preserveAspectRatio="none" width="100%" height="100%" overflow="visible" style="display: block;" viewBox="0 0 30 30" fill="none" xmlns="http://www.w3.org/2000/svg">
<g id="SVG">
<path id="Vector" fill-rule="evenodd" clip-rule="evenodd" d="M4.5 22.5C4.5 21.6715 5.17156 21 6 21H24C24.8284 21 25.5 21.6715 25.5 22.5C25.5 23.3284 24.8284 24 24 24H6C5.17156 24 4.5 23.3284 4.5 22.5ZM4.5 7.5C4.5 6.67156 5.17156 6 6 6H24C24.8284 6 25.5 6.67156 25.5 7.5C25.5 8.32842 24.8284 9 24 9H6C5.17156 9 4.5 8.32842 4.5 7.5ZM4.5 15C4.5 14.1716 5.17156 13.5 6 13.5H15C15.8285 13.5 16.5 14.1716 16.5 15C16.5 15.8285 15.8285 16.5 15 16.5H6C5.17156 16.5 4.5 15.8285 4.5 15Z" fill="var(--fill-0, #d4af37)"/>
</g>
</svg>
