<svg width="25" height="25" viewBox="0 0 25 25" fill="none" xmlns="http://www.w3.org/2000/svg">
<g clip-path="url(#clip0_8116_39966)">
<path d="M21.5922 11.9404C20.3988 12.924 18.8706 13.5157 17.207 13.5157C16.6312 13.5157 16.0716 13.4448 15.5366 13.3114C16.4933 14.7683 17.0508 16.5097 17.0508 18.3791V21.1247C17.0508 22.1516 16.6758 23.0921 16.0567 23.8184H22.3063C23.7917 23.8184 25 22.6101 25 21.1247V18.3791C25 15.7069 23.6478 13.3448 21.5922 11.9404Z" fill="#991B1B" stroke="#991B1B" stroke-width="0.0244141"/>
<path d="M7.79287 12.0508C10.7922 12.0508 13.2323 9.61074 13.2323 6.61143C13.2323 3.61194 10.7922 1.17188 7.79287 1.17188C4.79355 1.17188 2.35352 3.61194 2.35352 6.61143C2.35352 9.61072 4.79358 12.0508 7.79287 12.0508Z" fill="#991B1B" stroke="#991B1B" stroke-width="0.0244141"/>
<path d="M17.2068 12.0508C20.2061 12.0508 22.6464 9.61074 22.6464 6.61143C22.6464 3.61194 20.2061 1.17188 17.2068 1.17188C15.7559 1.17188 14.436 1.74292 13.4597 2.672C14.2392 3.79009 14.6972 5.14812 14.6972 6.61143C14.6972 8.07456 14.2392 9.43259 13.4597 10.5507C14.436 11.4797 15.7559 12.0508 17.2068 12.0508V12.0508Z" fill="#991B1B" stroke="#991B1B" stroke-width="0.0244141"/>
<path d="M12.1782 11.9404C10.985 12.924 9.45684 13.5157 7.79304 13.5157C6.12925 13.5157 4.6011 12.9242 3.40767 11.9404C1.35212 13.3448 0 15.7069 0 18.3791V21.1247C0 22.6101 1.2083 23.8184 2.69375 23.8184H12.8921C14.3776 23.8184 15.5859 22.6101 15.5859 21.1247V18.3791C15.5859 15.7069 14.2339 13.3448 12.1782 11.9404Z" fill="#991B1B" stroke="#991B1B" stroke-width="0.0244141"/>
</g>
<defs>
<clipPath id="clip0_8116_39966">
<rect width="25" height="25" fill="white"/>
</clipPath>
</defs>
</svg>
