<svg width="70" height="70" viewBox="0 0 70 70" fill="none" xmlns="http://www.w3.org/2000/svg">
<path fill-rule="evenodd" clip-rule="evenodd" d="M29.1667 5.83398C27.3565 5.83346 25.5907 6.39416 24.1125 7.43885C22.6343 8.48354 21.5163 9.96087 20.9125 11.6673H17.5C15.1794 11.6673 12.9538 12.5892 11.3128 14.2301C9.67187 15.8711 8.75 18.0967 8.75 20.4173V55.4173C8.75 57.7378 9.67187 59.9635 11.3128 61.6044C12.9538 63.2454 15.1794 64.1673 17.5 64.1673H52.5C54.8205 64.1673 57.0462 63.2454 58.6871 61.6044C60.328 59.9635 61.25 57.7378 61.25 55.4173V20.4173C61.25 18.0967 60.328 15.8711 58.6871 14.2301C57.0462 12.5892 54.8205 11.6673 52.5 11.6673H49.0875C48.4837 9.96087 47.3658 8.48354 45.8876 7.43885C44.4092 6.39416 42.6434 5.83346 40.8333 5.83398H29.1667ZM26.25 14.584C26.25 13.8104 26.5573 13.0686 27.1043 12.5216C27.6513 11.9746 28.3931 11.6673 29.1667 11.6673H40.8333C41.6068 11.6673 42.3488 11.9746 42.8957 12.5216C43.4426 13.0686 43.75 13.8104 43.75 14.584C43.75 15.3575 43.4426 16.0994 42.8957 16.6464C42.3488 17.1933 41.6068 17.5006 40.8333 17.5006H29.1667C28.3931 17.5006 27.6513 17.1933 27.1043 16.6464C26.5573 16.0994 26.25 15.3575 26.25 14.584ZM46.025 33.9069C46.2787 33.6097 46.4701 33.2646 46.5879 32.8922C46.7057 32.5197 46.7475 32.1274 46.7107 31.7384C46.674 31.3496 46.5593 30.9719 46.3738 30.628C46.1883 30.2841 45.9357 29.9811 45.6307 29.7369C45.3259 29.4925 44.975 29.312 44.599 29.2058C44.2231 29.0998 43.8296 29.0703 43.442 29.1192C43.0544 29.1682 42.6805 29.2945 42.3424 29.4905C42.0047 29.6868 41.7098 29.9487 41.475 30.2611L31.8412 42.3011L28.3121 38.7719C27.762 38.2405 27.0252 37.9465 26.2605 37.9532C25.4957 37.9599 24.7642 38.2667 24.2234 38.8075C23.6827 39.3482 23.3759 40.0797 23.3693 40.8445C23.3626 41.6092 23.6566 42.346 24.1879 42.8961L30.0212 48.7294C30.3112 49.0196 30.6591 49.2454 31.0424 49.3918C31.4253 49.5382 31.8351 49.6023 32.2446 49.5799C32.6544 49.5571 33.0546 49.4486 33.4192 49.2608C33.784 49.073 34.1049 48.8105 34.3612 48.4902L46.0279 33.9069H46.025Z" fill="url(#paint0_linear_8147_34098)"/>
<defs>
<linearGradient id="paint0_linear_8147_34098" x1="35" y1="5.83398" x2="35" y2="64.1673" gradientUnits="userSpaceOnUse">
<stop stop-color="#E1C300"/>
<stop offset="1" stop-color="#B37800"/>
</linearGradient>
</defs>
</svg>
