<svg width="70" height="70" viewBox="0 0 70 70" fill="none" xmlns="http://www.w3.org/2000/svg">
<path d="M65.7133 13.212C65.5105 13.4155 65.2697 13.577 65.0044 13.6872C64.7391 13.7974 64.4547 13.8541 64.1674 13.8541C63.8802 13.8541 63.5957 13.7974 63.3305 13.6872C63.0652 13.577 62.8243 13.4155 62.6216 13.212L60.5216 11.1149V20.4161C60.5216 20.9963 60.2911 21.5527 59.8809 21.9629C59.4706 22.3732 58.9142 22.6036 58.3341 22.6036C57.7539 22.6036 57.1975 22.3732 56.7873 21.9629C56.3771 21.5527 56.1466 20.9963 56.1466 20.4161V11.1149L54.0466 13.212C53.6319 13.5984 53.0834 13.8087 52.5167 13.7987C51.95 13.7887 51.4093 13.5592 51.0085 13.1584C50.6077 12.7576 50.3782 12.2169 50.3682 11.6502C50.3582 11.0834 50.5685 10.535 50.9549 10.1203L56.7882 4.28697C57.1988 3.87804 57.7546 3.64844 58.3341 3.64844C58.9135 3.64844 59.4694 3.87804 59.8799 4.28697L65.7133 10.1203C65.9164 10.3232 66.0776 10.5642 66.1876 10.8294C66.2976 11.0947 66.3542 11.379 66.3542 11.6661C66.3542 11.9533 66.2976 12.2376 66.1876 12.5029C66.0776 12.7681 65.9164 13.0091 65.7133 13.212ZM64.1674 34.9995C64.169 38.9006 63.3879 42.7625 61.8705 46.3565C60.353 49.9504 58.13 53.2034 55.3329 55.923C52.5359 58.6425 49.2217 60.7733 45.5865 62.1892C41.9514 63.6051 38.0691 64.2773 34.1695 64.1661C26.7455 63.8813 19.7025 60.8046 14.4491 55.5511C9.19568 50.2977 6.11892 43.2548 5.83411 35.8307C5.72293 31.9311 6.39518 28.0488 7.81108 24.4137C9.22698 20.7785 11.3577 17.4643 14.0773 14.6673C16.7968 11.8702 20.0498 9.64722 23.6438 8.12975C27.2377 6.61228 31.0996 5.83122 35.0007 5.83281C38.7489 5.81916 42.4628 6.5457 45.9295 7.97072C46.0391 8.01904 46.1378 8.08898 46.2197 8.17636C46.3016 8.26375 46.365 8.36677 46.4062 8.47925C46.4473 8.59174 46.4653 8.71137 46.459 8.83098C46.4528 8.95058 46.4225 9.0677 46.3699 9.17531C45.5138 11.067 45.1188 13.1349 45.2172 15.209C45.3157 17.2831 45.9048 19.3043 46.9363 21.1064C47.9678 22.9086 49.4121 24.4403 51.1506 25.5757C52.8891 26.7111 54.8722 27.4178 56.937 27.6378C58.6824 27.8193 60.4464 27.6558 62.1287 27.1565C62.2402 27.1192 62.3582 27.1048 62.4755 27.1141C62.5927 27.1234 62.7069 27.1563 62.8112 27.2108C62.9155 27.2652 63.0077 27.3401 63.0824 27.4311C63.157 27.522 63.2126 27.627 63.2458 27.7399C63.8605 30.1107 64.1703 32.5503 64.1674 34.9995ZM43.6691 40.8824C43.6689 39.1765 43.0988 37.5196 42.0494 36.1748C40.9999 34.8299 39.5313 33.8742 37.8766 33.4595L33.1866 32.2928C32.4705 32.1137 31.8362 31.6973 31.387 31.1115C30.9417 30.5413 30.7022 29.8372 30.7074 29.1136C30.709 28.2465 31.0543 27.4153 31.6678 26.8024C32.2813 26.1894 33.1127 25.8448 33.9799 25.844H36.0216C36.8277 25.8455 37.605 26.1436 38.2054 26.6816C38.8057 27.2195 39.187 27.9596 39.2766 28.7607C39.3005 29.0525 39.3827 29.3365 39.5184 29.596C39.6541 29.8554 39.8405 30.085 40.0665 30.271C40.2925 30.4571 40.5536 30.5959 40.8343 30.6792C41.115 30.7625 41.4095 30.7887 41.7004 30.756C41.9914 30.7234 42.2728 30.6328 42.5281 30.4894C42.7833 30.346 43.0072 30.1528 43.1865 29.9213C43.3657 29.6898 43.4966 29.4247 43.5715 29.1417C43.6464 28.8587 43.6637 28.5635 43.6224 28.2736C43.4349 26.5938 42.6951 25.0236 41.519 23.8096C40.343 22.5955 38.7971 21.8061 37.1241 21.5653V20.4161C37.1241 19.836 36.8936 19.2796 36.4834 18.8693C36.0731 18.4591 35.5167 18.2286 34.9366 18.2286C34.3564 18.2286 33.8 18.4591 33.3898 18.8693C32.9796 19.2796 32.7491 19.836 32.7491 20.4161V21.5828C31.014 21.8651 29.4295 22.7373 28.263 24.0524C27.0965 25.3674 26.4194 27.0446 26.3461 28.8009C26.2727 30.5572 26.8076 32.2851 27.8604 33.6928C28.9132 35.1005 30.4195 36.1018 32.1249 36.5278L36.8149 37.6945C37.5891 37.8894 38.2654 38.3604 38.7168 39.0189C39.1681 39.6774 39.3634 40.4781 39.266 41.2705C39.1686 42.0629 38.7851 42.7924 38.1876 43.3219C37.5902 43.8514 36.8199 44.1445 36.0216 44.1461H33.9799C33.1738 44.1447 32.3965 43.8465 31.7961 43.3086C31.1958 42.7707 30.8145 42.0306 30.7249 41.2295C30.701 40.9377 30.6188 40.6536 30.4831 40.3942C30.3474 40.1348 30.161 39.9052 29.935 39.7192C29.709 39.5331 29.4479 39.3943 29.1672 39.311C28.8865 39.2276 28.592 39.2015 28.3011 39.2341C28.0101 39.2667 27.7287 39.3574 27.4734 39.5008C27.2182 39.6442 26.9943 39.8373 26.815 40.0688C26.6358 40.3003 26.5049 40.5655 26.43 40.8485C26.3551 41.1315 26.3378 41.4267 26.3791 41.7165C26.5628 43.3759 27.2852 44.9294 28.4356 46.1393C29.586 47.3493 31.1011 48.149 32.7491 48.4161V49.5828C32.7491 50.163 32.9796 50.7194 33.3898 51.1296C33.8 51.5398 34.3564 51.7703 34.9366 51.7703C35.5167 51.7703 36.0731 51.5398 36.4834 51.1296C36.8936 50.7194 37.1241 50.163 37.1241 49.5828V48.4161C38.9409 48.1601 40.6039 47.2559 41.8067 45.8704C43.0094 44.4849 43.6709 42.7113 43.6691 40.8765V40.8824Z" fill="url(#paint0_linear_8147_34101)"/>
<defs>
<linearGradient id="paint0_linear_8147_34101" x1="36.0882" y1="3.64844" x2="36.0882" y2="64.178" gradientUnits="userSpaceOnUse">
<stop stop-color="#E1C300"/>
<stop offset="1" stop-color="#B37800"/>
</linearGradient>
</defs>
</svg>
