<svg width="70" height="70" viewBox="0 0 70 70" fill="none" xmlns="http://www.w3.org/2000/svg">
<path d="M35 2.1875C16.8652 2.1875 2.1875 16.863 2.1875 35C2.1875 53.1348 16.8629 67.8125 35 67.8125C53.1348 67.8125 67.8125 53.1371 67.8125 35C67.8125 16.8652 53.137 2.1875 35 2.1875ZM40.8006 48.5343L38.8671 50.4679C36.2847 53.0503 32.8515 54.4724 29.1994 54.4724C25.5475 54.4724 22.1143 53.0503 19.5319 50.4681C16.9497 47.8857 15.5276 44.4525 15.5276 40.8006C15.5276 37.1485 16.9497 33.7153 19.5319 31.1329L21.4655 29.1994C22.5336 28.1318 24.2648 28.1315 25.3325 29.1996C26.4004 30.2675 26.4003 31.9988 25.3323 33.0665L23.3989 35C21.8496 36.5493 20.9963 38.6092 20.9963 40.8006C20.9963 42.9916 21.8496 45.0517 23.399 46.601C24.9483 48.1504 27.0084 49.0037 29.1994 49.0037C31.3906 49.0037 33.4507 48.1504 35 46.601L36.9335 44.6675C38.0013 43.5996 39.7327 43.5996 40.8004 44.6674C41.8682 45.7353 41.8683 47.4666 40.8006 48.5343ZM29.1994 36.9335L36.9333 29.1996C38.0011 28.1317 39.7327 28.1317 40.8004 29.1996C41.8682 30.2675 41.8682 31.9989 40.8004 33.0667L33.0665 40.8006C32.5326 41.3345 31.8328 41.6013 31.1329 41.6013C30.4332 41.6013 29.7333 41.3345 29.1993 40.8006C28.1318 39.7327 28.1318 38.0013 29.1994 36.9335ZM50.4679 38.867L48.5345 40.8006C48.0006 41.3345 47.3007 41.6013 46.6009 41.6013C45.9011 41.6013 45.2013 41.3345 44.6672 40.8006C43.5995 39.7327 43.5995 38.0013 44.6672 36.9335L46.6009 35C48.1503 33.4507 49.0036 31.3908 49.0036 29.1996C49.0036 27.0084 48.1503 24.9484 46.6009 23.3991C45.0516 21.8497 42.9916 20.9964 40.8004 20.9964C38.6094 20.9964 36.5493 21.8497 35 23.399L33.0664 25.3328C31.9985 26.4005 30.2671 26.4005 29.1993 25.3328C28.1315 24.2648 28.1315 22.5334 29.1993 21.4657L31.1329 19.5321C33.7153 16.9498 37.1484 15.5277 40.8004 15.5277C48.3565 15.5277 54.4723 21.6424 54.4723 29.1996C54.4724 32.8515 53.0502 36.2846 50.4679 38.867Z" fill="url(#paint0_linear_8147_34095)"/>
<defs>
<linearGradient id="paint0_linear_8147_34095" x1="35" y1="2.1875" x2="35" y2="67.8125" gradientUnits="userSpaceOnUse">
<stop stop-color="#E1C300"/>
<stop offset="1" stop-color="#B37800"/>
</linearGradient>
</defs>
</svg>
