<svg xmlns="http://www.w3.org/2000/svg" width="30" height="30" fill="none"><path fill="#fff" d="M28.788 6.288 25.975 9.1a.94.94 0 0 1-.663.275h-3.361l-6.288 6.288a.934.934 0 0 1-1.326 0 .937.937 0 0 1 0-1.326l6.288-6.288V4.688c0-.25.099-.488.275-.663l2.812-2.813a.936.936 0 0 1 1.6.663v2.813h2.813a.938.938 0 0 1 .663 1.6m-7.61 6.509-4.19 4.19a2.8 2.8 0 0 1-1.988.826 2.813 2.813 0 0 1-1.988-4.8l4.191-4.191A6.3 6.3 0 0 0 15 8.438 6.57 6.57 0 0 0 8.438 15 6.57 6.57 0 0 0 15 21.563 6.57 6.57 0 0 0 21.563 15c0-.778-.132-1.519-.385-2.203M29.062 15c0 7.753-6.309 14.063-14.062 14.063S.938 22.753.938 15 7.247.938 15 .938c1.828 0 3.619.356 5.288 1.05l-.713.712a2.8 2.8 0 0 0-.825 1.987v2.588l-.113.112A8.45 8.45 0 0 0 15 6.563c-4.65 0-8.437 3.787-8.437 8.437S10.35 23.438 15 23.438 23.438 19.65 23.438 15c0-1.303-.3-2.531-.825-3.637l.112-.113h2.587c.75 0 1.453-.29 1.988-.825l.712-.713A13.7 13.7 0 0 1 29.062 15"/></svg>