<svg width="25" height="25" viewBox="0 0 25 25" fill="none" xmlns="http://www.w3.org/2000/svg">
<path d="M2.34375 4.66577H22.6562C22.8635 4.66577 23.0622 4.58347 23.2086 4.43696C23.3552 4.29045 23.4375 4.09175 23.4375 3.88455C23.4375 3.67734 23.3551 3.47864 23.2086 3.3321C23.0622 3.1856 22.8635 3.10327 22.6562 3.10327H2.34375C2.13655 3.10327 1.93784 3.1856 1.79131 3.3321C1.64478 3.47861 1.5625 3.67732 1.5625 3.88452C1.5625 4.09172 1.6448 4.29043 1.79131 4.43696C1.93782 4.5835 2.13655 4.66577 2.34375 4.66577Z" fill="#991B1B" stroke="#991B1B" stroke-width="0.0244141"/>
<path d="M5.53125 6.22888C4.31902 7.57595 3.52322 9.24546 3.24012 11.0354C2.95701 12.8253 3.19873 14.6589 3.93604 16.3143C4.67337 17.9697 5.87466 19.376 7.39456 20.3629C8.91446 21.3497 10.6878 21.875 12.5 21.875C14.3122 21.875 16.0855 21.3497 17.6054 20.3629C19.1253 19.376 20.3267 17.9697 21.0639 16.3143C21.8012 14.6589 22.0431 12.8253 21.7599 11.0354C21.4768 9.24546 20.681 7.57595 19.4688 6.22888H5.53125ZM14.0625 11.6976C14.477 11.6976 14.8743 11.8623 15.1674 12.1553C15.4604 12.4483 15.625 12.8457 15.625 13.2601V14.8227C15.625 15.2371 15.4604 15.6345 15.1674 15.9275C14.8743 16.2206 14.477 16.3852 14.0625 16.3852H13.2813V17.1664C13.2813 17.3736 13.1989 17.5722 13.0524 17.7188C12.9059 17.8653 12.7072 17.9477 12.5 17.9477C12.2928 17.9477 12.0941 17.8653 11.9476 17.7188C11.801 17.5723 11.7188 17.3736 11.7188 17.1664V16.3852H10.1563C9.94905 16.3852 9.75035 16.3028 9.60381 16.1563C9.45728 16.0098 9.375 15.8111 9.375 15.6039C9.375 15.3967 9.4573 15.1979 9.60381 15.0514C9.75032 14.9049 9.94903 14.8227 10.1563 14.8227H14.0625V13.2601H10.9375C10.5231 13.2601 10.1257 13.0955 9.83264 12.8025C9.53963 12.5094 9.375 12.112 9.375 11.6976V10.1351C9.375 9.72073 9.5396 9.32329 9.83264 9.03027C10.1257 8.73726 10.5231 8.57263 10.9375 8.57263H11.7188V7.79138C11.7188 7.58418 11.8011 7.38547 11.9476 7.23894C12.0941 7.09241 12.2928 7.01013 12.5 7.01013C12.7072 7.01013 12.9059 7.09243 13.0524 7.23894C13.1989 7.38545 13.2813 7.58418 13.2813 7.79138V8.57263H14.8438C15.051 8.57263 15.2497 8.65496 15.3961 8.80144C15.5427 8.94795 15.625 9.14668 15.625 9.35388C15.625 9.56108 15.5426 9.75979 15.3961 9.90632C15.2497 10.0528 15.051 10.1351 14.8438 10.1351H10.9375V11.6976H14.0625Z" fill="#991B1B" stroke="#991B1B" stroke-width="0.0244141"/>
</svg>
