<svg xmlns="http://www.w3.org/2000/svg" viewBox="0 0 200 200"><style>.H{fill:#fff}.I{stroke-miterlimit:6.4}.J{stroke-linejoin:bevel}.K{stroke-width:.4}.L{stroke-width:.5}</style><path fill="#032ea1" d="M200 100a100 100 0 0 1-100 100 100 100 0 1 1 100-100"/><path fill="#e00025" d="M200 100c0 18-5 35-13 50H13a99 99 0 0 1 0-100h174c8 15 13 32 13 50"/><g stroke="#000"><g class="H K"><g class="J"><path d="M72 94h57v22H72z"/><path d="M73 102v2h25v-2zm-1-4v3h56v-3zm1 4v2h25v-2zm-1 0v2h56v-2zm0 4v8h2v-8zm4 0v8h2v-8zm4 0v8h1v-8zm3 0v8h2v-8zm4 0v8h2v-8zm24 0v8h2v-8zm4 0v8h1v-8zm3 0v8h2v-8zm4 0v8h2v-8zm4 0v8h2v-8zM72 95h56v2H72z"/></g><g class="I"><path d="m50 117 2-3h96l2 3z"/><path d="m100 58-1 2h2l-1-2zm7 23 2-3-1-3-1 2v-1l1-2-1-3-1 2v-5l-1 2v-4l-1 1v-2h-8v2h-1v3l-1-1v4l-1-2v3l1 2-1 1-1-2-1 3 2 3c0 1-1 1-1-1l-1 3 2 2v3h15v-3l1-2v-3c-1 2-2 2-2 1zM96 63v2h8v-2zm1-1v1h6v-1zm1-1v1h4v-1h-4zm16 56-1-1-1-2v-12l1-1H87v1h1v12l-1 2-1 1h28z"/></g><path d="M92 106v8h1v-8zm15 0v8h2v-8z" class="J"/><g class="I"><path d="M87 87v13h27V87l-2 1v6H88v-6l-1-1z"/><path d="m91 99 2 2v13l-2 3h19l-3-3v-13l2-2H91z"/><path d="M110 89v-1H90v1h-2v10h24V89h-2zm-4 28-2-1v-14h-8v14l-1 1h-1 12z"/></g></g><path d="M98 102h4v15h-4z" class="H I L"/><g class="K"><path d="m105 98 4-2H91l4 2 1 2h7l1-2Z" class="H J"/><g class="I"><path d="M108 88H92l-1-4v8l2 2 1 1h12l1-1 2-2v-8l-1 4zm3-2v-2s-2 0-2 3v10h2v-8l-1-1 1-2zM91 87c0-3-2-3-2-3v2l1 2-1 1v7h2v-9z" class="H"/><path fill="none" d="M96 67h8m-9 3h10m-11 3h12m-13 4h14m-15 5h16M88 97h24m-17 0v3h9v-4z"/><g class="H"><path d="m94 89 2 5v2h8v-2l2-5zm7-22-1-1-1 1-1-1v2l1 1h2l1-1v-2l-1 1z"/><path d="m99 71-2-1v-1l2 1 1-3 1 3 2-1v1l-2 1h-2z"/><path d="m102 73-1-2a3 3 0 0 0-1-1l-1 1-1 2-1-2v3l1 1 1 1h2l1-1 1-1v-2l-2 1zm-5 6 1 1 1 1h2l1-1 1-1h-6zm-2 4 2 3v1h6v-1l1-3h-9z"/></g></g><g class="J H"><path d="M105 79v-3l-2 1-3-4-3 4-1-1v3z"/><path d="M105 83v-3l-2 2-3-4-3 4-2-2v3z"/><path d="M106 89v-3l-3 2c1-2-1-5-3-6-2 1-4 4-4 6l-2-2v3z"/><path d="M105 97v-4l-1 2c0-3-2-7-4-8-2 1-4 5-3 8l-2-2v3z"/></g><g class="I H"><path d="M105 102v-4c-2 0-2 1-2 2 0-2-1-5-3-6-2 1-3 4-3 6 0-1 0-2-2-2v4zm-53 12v-10l-3-3v-9l2 1 2 10v11h-1z"/><path d="M52 114v-10l-3-3v-9l2 1 2 10v11h-1z"/><path d="m50 117 2-3v-14h22l-1 2v12l1 3H51z"/><path d="m70 117-2-3v-12l2-2H55l2 2v12l-2 3h15z"/><path d="m68 117-2-3v-11l1-1h-9l1 1v11l-2 3h11Z"/><path d="M60 102h5v15h-5z"/></g><path d="M54 106v8h2v-8zm15 0v8h2v-8zM53 92v8h2v-8zm0-2v2h2v-2z" class="H J"/></g><path d="M70 94h4v6h-4z" class="H J L"/><g class="K H"><g class="I"><path d="M68 88v-5l-1 1 1-4-1 1v-3l-1 1c0-2 0-4-2-5l-1-1-1 1c-2 1-2 3-2 4s-1 2-1 0v3c0 1-1 1-1-1v4l-1-1v5l-2-2v14h16V86l-2 2zm-17 1v11h2V89h-2z"/><path d="m55 100-2-3h-1v3h3zm18-7v7h1v-7a1 1 0 0 0-1 0z"/><path d="M74 97h-1l-1 1-1 2h3v-4zM64 78l-1-1-2 1v1l1 1h2l1-1v-1h-1z"/><path d="m64 82 1-1v-1h-1l-1-1-2 1v2h3Z"/><path d="m64 85 2-1v-2l-2 1-1-2-2 2-1-1v2l1 1z"/><path d="m65 89 1-2v-2l-1 1-2-3c-1 1-2 1-2 3l-2-1v2l2 2h4z"/><path d="m65 95 2-4v-2l-2 2c0-3-1-4-3-5l-2 4-2-1v2l2 4z"/><path d="m65 98 2-2v-3l-2 2c0-3-1-4-3-5-1 1-2 2-2 5l-2-2v2l2 3z"/><path d="m66 100-3-6c-3 2-3 4-4 6z"/><path d="M68 102v-4l-3 2-2-4-3 4-2-2v4zm80 12v-10l2-3v-9l-1 1-3 10v11h2z"/><path d="M148 114v-10l2-3v-9l-1 1-3 10v11h2z"/><path d="m150 117-3-3v-13l1-1h-22l1 2v12l-2 3z"/><path d="m130 117 2-3v-12l-2-2h15l-2 2v12l2 3z"/><path d="m132 117 2-3v-11l-1-1h9l-1 1v11l2 3h-11Z"/><path d="M140 102h-5v15h5z"/></g><path d="M144 106v8h2v-8zm-15 0v8h2v-8zm16-14v8h2v-8zm0-2v2h2v-2z" class="J"/></g><path d="M130 94h-4v6h4z" class="H J L"/><g class="I K H"><path d="M143 88v-5l-1 1v-4c0 2-1 2-1 1v-3c0 2-1 2-1 1 0-2 0-4-2-5l-1-1v1c-3 1-3 3-3 4s0 2-1 0l1 3c0 1-1 1-1-1v4c0 1-1 1-1-1v5c-2 0-2-2-2-2v14h16V86c-1 0-1 2-3 2zm4 1v11h2V89h-2z"/><path d="M148 97h-1l-2 3h4v-4l-1 1zm-22-4v7h1v-7h-1z"/><path d="M129 100v-2l-2-1h-1v-1 4h3zm10-22-2-1-1 1h-1v1l1 1h3l1-1v-1h-1z"/><path d="m136 82-1-1v-1h1l1-1 2 1v2h-3Z"/><path d="m136 85-2-1v-2l1 1 2-2 2 2 1-1v2l-1 1z"/><path d="m135 89-1-2v-2l1 1 2-3c1 1 2 1 2 3l2-1v2l-2 2h-4z"/><path d="m135 95-3-4v-2c1 0 2 0 3 2 0-3 1-4 2-5 2 1 3 2 3 4l3-1v2l-3 4z"/><path d="m135 98-3-2v-3c1 0 2 0 3 2 0-3 1-4 2-5 2 1 3 2 3 5 1-2 2-2 3-2v2l-3 3z"/><path d="m134 100 3-6c3 2 3 4 4 6z"/><path d="M133 102v-4l2 2 2-4 3 4 2-2v4zm-31 15H47v3h106v-3zm-57 3v4h110v-4zm110 4H42v5h116v-5h-3zm-51 0H67v5h66v-5zm-65 5v6h122v-6zm26 0v6h70v-6zm39-5H67v5h66v-5zm57 11H35v7h130v-7zm-26 0v-6H65v6z"/></g><g class="L H I"><path d="M59 117h8v25h-8z"/><path d="M60 117h5v25h-5zm36 0h8v25h-8z"/><path d="M98 117h4v25h-4zm35 0h8v25h-8z"/><path d="M135 117h5v25h-5z"/></g><path fill="none" d="M52 114h96m-88 24h5m-5-3h5m-5-3h5m-5-3h5m-5-3h5m-5-3h5m-5-3h5m33 19h4m-4-4h4m-4-3h4m-4-3h4m-4-3h4m-4-3h4m-4-3h4m33 19h5m-5-4h5m-5-3h5m-5-3h5m-5-3h5m-5-3h5m-5-3h5" class="I K"/></g></svg>