<svg xmlns="http://www.w3.org/2000/svg" width="30" height="30" viewBox="0 0 24.6429 23.1021" fill="none" aria-hidden="true">
  <path
    fill-rule="evenodd"
    clip-rule="evenodd"
    d="M0.000685638 8.47075C0.000685638 3.79951 4.49173 5.96046e-08 10.0116 5.96046e-08C15.5314 5.96046e-08 20.0224 3.79951 20.0224 8.47075C20.0224 13.142 15.5314 16.9415 10.0116 16.9415H0.770754C0.459646 16.9415 0.177801 16.7536 0.0592108 16.4671C-0.0609198 16.1791 0.00530603 15.848 0.225545 15.6278L2.14147 13.7119C0.755353 12.221 0.000685638 10.3867 0.000685638 8.47075ZM5.39116 10.781H11.5517C11.9767 10.781 12.3218 10.436 12.3218 10.0109C12.3218 9.58581 11.9767 9.24082 11.5517 9.24082H5.39116C4.96608 9.24082 4.62109 9.58581 4.62109 10.0109C4.62109 10.436 4.96608 10.781 5.39116 10.781ZM5.39116 7.70068H14.632C15.0571 7.70068 15.402 7.35569 15.402 6.93061C15.402 6.50553 15.0571 6.16054 14.632 6.16054H5.39116C4.96608 6.16054 4.62109 6.50553 4.62109 6.93061C4.62109 7.35569 4.96608 7.70068 5.39116 7.70068ZM24.6429 14.6312C24.6429 16.5472 23.8883 18.3831 22.5021 19.8724L24.4181 21.7868C24.6367 22.007 24.703 22.3381 24.5844 22.6261C24.4657 22.9141 24.184 23.1021 23.8728 23.1021H14.632C10.7524 23.1021 7.3872 21.22 5.72694 18.4816H10.0116C16.3585 18.4816 21.521 14.0229 21.5595 8.53081C23.4555 10.0725 24.6429 12.2349 24.6429 14.6312Z"
    fill="url(#leng855LiveChatGrad)"
  />
  <defs>
    <linearGradient
      id="leng855LiveChatGrad"
      x1="12.3214"
      y1="0"
      x2="12.3214"
      y2="23.1021"
      gradientUnits="userSpaceOnUse"
    >
      <stop stop-color="#FF6B71" />
      <stop offset="1" stop-color="#A61218" />
    </linearGradient>
  </defs>
</svg>
