<svg preserveAspectRatio="none" width="100%" height="100%" overflow="visible" style="display: block;" viewBox="0 0 155.23 35.9323" fill="none" xmlns="http://www.w3.org/2000/svg">
<g id="Group" filter="url(#filter0_d_0_32)">
<path id="Vector" d="M7.45152 0H16.4498L8.99827 35H0L7.45152 0Z" fill="url(#paint0_linear_0_32)"/>
<path id="Vector_2" d="M25.4981 35L15.4496 21.6508C14.6994 20.6506 14.3494 19.7005 14.3494 18.6502C14.3494 16.6498 14.9495 14.2993 16.7498 12.649L30.8992 0H41.6978L24.998 14.8995C23.8977 15.8497 23.0476 16.5998 23.0476 18.0001C23.0476 18.8503 23.4977 19.5504 24.1978 20.4506L36.0466 35H25.4981Z" fill="url(#paint1_linear_0_32)"/>
<path id="Vector_3" d="M51.339 35H42.3408L45.4414 20.4006H32.2994C31.1635 20.4006 30.3133 19.3504 30.5527 18.2394L30.8884 16.6784L31.2885 14.8102C31.4636 13.985 32.1923 13.3992 33.0353 13.3992H46.9417L49.7887 0H58.787L51.3355 35H51.339Z" fill="url(#paint2_linear_0_32)"/>
<path id="Vector_4" d="M70.4429 35H63.4415L71.0002 0H78.0016L70.4429 35Z" fill="var(--fill-0, #F2F2F2)"/>
<path id="Vector_5" d="M79.5198 10.4986C80.1485 7.58369 81.706 5.10461 84.1886 3.06134C86.6713 1.02164 89.3718 0 92.2867 0H113.287L111.776 7.00143H90.7757C89.7898 7.00143 88.8896 7.34078 88.068 8.01235C87.2464 8.68749 86.732 9.51623 86.5177 10.5021L85.7604 14.0029H103.26C106.175 14.0029 108.436 15.0245 110.037 17.0642C111.637 19.1075 112.123 21.5865 111.494 24.5014C110.865 27.4199 109.308 29.899 106.825 31.9387C104.343 33.9819 101.642 35 98.7273 35H84.728C81.8096 35 79.552 33.9784 77.9516 31.9387C76.3513 29.899 75.8655 27.4199 76.4942 24.5014L79.5162 10.5021L79.5198 10.4986ZM84.2529 21.0007L83.4956 24.5014C83.2813 25.4873 83.442 26.3161 83.9707 26.9912C84.4994 27.6664 85.2567 28.0021 86.239 28.0021H100.238C101.224 28.0021 102.124 27.6664 102.946 26.9912C103.764 26.3161 104.282 25.4873 104.496 24.5014C104.711 23.5155 104.55 22.6868 104.021 22.0116C103.493 21.3365 102.735 21.0007 101.753 21.0007H84.2529Z" fill="var(--fill-0, #F2F2F2)"/>
<path id="Vector_6" d="M148.963 17.5C150.288 19.4683 150.659 21.8009 150.077 24.5014C149.448 27.4199 147.891 29.899 145.408 31.9387C142.926 33.9819 140.225 35 137.31 35H123.311C120.392 35 118.135 33.9784 116.535 31.9387C114.934 29.899 114.448 27.4199 115.077 24.5014C115.659 21.8045 117.038 19.4718 119.214 17.5C117.888 15.5317 117.517 13.1991 118.099 10.4986C118.728 7.58369 120.285 5.10461 122.768 3.06134C125.251 1.02164 127.951 0 130.866 0H144.865C147.78 0 150.041 1.02164 151.642 3.06134C153.242 5.10461 153.728 7.58369 153.099 10.4986C152.517 13.1956 151.138 15.5282 148.963 17.5ZM141.843 13.9993C142.829 13.9993 143.729 13.6635 144.551 12.9884C145.369 12.3132 145.887 11.4845 146.101 10.4986C146.316 9.51266 146.155 8.68392 145.626 8.00878C145.097 7.33364 144.34 6.99786 143.358 6.99786H129.359C128.373 6.99786 127.472 7.33721 126.651 8.00878C125.829 8.68392 125.315 9.51266 125.101 10.4986C124.886 11.4845 125.047 12.3132 125.576 12.9884C126.104 13.6635 126.862 13.9993 127.844 13.9993H141.843ZM140.332 21.0007H126.333C125.347 21.0007 124.447 21.3401 123.625 22.0116C122.804 22.6868 122.289 23.5155 122.075 24.5014C121.861 25.4873 122.021 26.3161 122.55 26.9912C123.079 27.6664 123.836 28.0021 124.818 28.0021H138.818C139.804 28.0021 140.704 27.6664 141.525 26.9912C142.343 26.3161 142.861 25.4873 143.076 24.5014C143.29 23.5155 143.129 22.6868 142.601 22.0116C142.072 21.3365 141.315 21.0007 140.332 21.0007Z" fill="var(--fill-0, #F2F2F2)"/>
</g>
<defs>
<filter id="filter0_d_0_32" x="0" y="0" width="155.23" height="35.9323" filterUnits="userSpaceOnUse" color-interpolation-filters="sRGB">
<feFlood flood-opacity="0" result="BackgroundImageFix"/>
<feColorMatrix in="SourceAlpha" type="matrix" values="0 0 0 0 0 0 0 0 0 0 0 0 0 0 0 0 0 0 127 0" result="hardAlpha"/>
<feOffset dx="1.86467" dy="0.932333"/>
<feColorMatrix type="matrix" values="0 0 0 0 0 0 0 0 0 0 0 0 0 0 0 0 0 0 0.75 0"/>
<feBlend mode="normal" in2="BackgroundImageFix" result="effect1_dropShadow_0_32"/>
<feBlend mode="normal" in="SourceGraphic" in2="effect1_dropShadow_0_32" result="shape"/>
</filter>
<linearGradient id="paint0_linear_0_32" x1="8.22311" y1="35" x2="8.22311" y2="0" gradientUnits="userSpaceOnUse">
<stop stop-color="#951A23"/>
<stop offset="1" stop-color="#F42A43"/>
</linearGradient>
<linearGradient id="paint1_linear_0_32" x1="28.0236" y1="0" x2="28.0236" y2="0" gradientUnits="userSpaceOnUse">
<stop stop-color="#951A23"/>
<stop offset="1" stop-color="#F42A43"/>
</linearGradient>
<linearGradient id="paint2_linear_0_32" x1="44.652" y1="0" x2="44.652" y2="0" gradientUnits="userSpaceOnUse">
<stop stop-color="#951A23"/>
<stop offset="1" stop-color="#F42A43"/>
</linearGradient>
</defs>
</svg>
